<?xml version="1.0" encoding="UTF-8" standalone="no"?>
<svg
   viewBox="0 0 331.59 118.19"
   version="1.1"
   id="svg2026"
   xmlns:xlink="http://www.w3.org/1999/xlink"
   xmlns="http://www.w3.org/2000/svg"
   xmlns:svg="http://www.w3.org/2000/svg"
   xmlns:rdf="http://www.w3.org/1999/02/22-rdf-syntax-ns#"
   xmlns:cc="http://creativecommons.org/ns#"
   xmlns:dc="http://purl.org/dc/elements/1.1/">
  <defs
     id="defs1670">
    <style
       id="style1427">.cls-1,.cls-110{fill:none;}.cls-2{fill:#3c9;}.cls-3{clip-path:url(#clip-path);}.cls-4{fill:url(#linear-gradient);}.cls-5{clip-path:url(#clip-path-2);}.cls-6{fill:url(#linear-gradient-2);}.cls-7{clip-path:url(#clip-path-3);}.cls-8{fill:url(#linear-gradient-3);}.cls-9{clip-path:url(#clip-path-4);}.cls-10{fill:url(#linear-gradient-4);}.cls-11{clip-path:url(#clip-path-5);}.cls-12{fill:url(#linear-gradient-5);}.cls-13{clip-path:url(#clip-path-6);}.cls-14{fill:url(#linear-gradient-6);}.cls-15{clip-path:url(#clip-path-7);}.cls-16{fill:url(#linear-gradient-7);}.cls-17{clip-path:url(#clip-path-8);}.cls-18{fill:url(#linear-gradient-8);}.cls-19{clip-path:url(#clip-path-9);}.cls-20{fill:url(#linear-gradient-9);}.cls-21{clip-path:url(#clip-path-10);}.cls-22{fill:url(#linear-gradient-10);}.cls-23{clip-path:url(#clip-path-11);}.cls-24{fill:url(#linear-gradient-11);}.cls-25{clip-path:url(#clip-path-12);}.cls-26{fill:url(#linear-gradient-12);}.cls-27{clip-path:url(#clip-path-13);}.cls-28{fill:url(#linear-gradient-13);}.cls-29{clip-path:url(#clip-path-14);}.cls-30{fill:url(#linear-gradient-14);}.cls-31{clip-path:url(#clip-path-15);}.cls-32{fill:url(#linear-gradient-15);}.cls-33{clip-path:url(#clip-path-16);}.cls-34{fill:url(#linear-gradient-16);}.cls-35{clip-path:url(#clip-path-17);}.cls-36{fill:url(#linear-gradient-17);}.cls-37{clip-path:url(#clip-path-18);}.cls-38{fill:url(#linear-gradient-18);}.cls-39{clip-path:url(#clip-path-19);}.cls-40{fill:url(#linear-gradient-19);}.cls-41{clip-path:url(#clip-path-20);}.cls-42{fill:url(#linear-gradient-20);}.cls-43{clip-path:url(#clip-path-21);}.cls-44{fill:url(#linear-gradient-21);}.cls-45{clip-path:url(#clip-path-22);}.cls-46{fill:url(#linear-gradient-22);}.cls-47{clip-path:url(#clip-path-23);}.cls-48{fill:url(#linear-gradient-23);}.cls-49{clip-path:url(#clip-path-24);}.cls-50{fill:url(#linear-gradient-24);}.cls-51{clip-path:url(#clip-path-25);}.cls-52{fill:url(#linear-gradient-25);}.cls-53{clip-path:url(#clip-path-26);}.cls-54{fill:url(#linear-gradient-26);}.cls-55{clip-path:url(#clip-path-27);}.cls-56{fill:url(#linear-gradient-27);}.cls-57{clip-path:url(#clip-path-28);}.cls-58{fill:url(#linear-gradient-28);}.cls-59{clip-path:url(#clip-path-29);}.cls-60{fill:url(#linear-gradient-29);}.cls-61{clip-path:url(#clip-path-30);}.cls-62{fill:url(#linear-gradient-30);}.cls-63{clip-path:url(#clip-path-31);}.cls-64{clip-path:url(#clip-path-32);}.cls-65{fill:url(#linear-gradient-32);}.cls-66{clip-path:url(#clip-path-33);}.cls-67{fill:url(#linear-gradient-33);}.cls-68{clip-path:url(#clip-path-34);}.cls-69{fill:url(#linear-gradient-34);}.cls-70{clip-path:url(#clip-path-35);}.cls-71{fill:url(#linear-gradient-35);}.cls-72{clip-path:url(#clip-path-36);}.cls-73{fill:url(#linear-gradient-36);}.cls-74{clip-path:url(#clip-path-37);}.cls-75{fill:url(#linear-gradient-37);}.cls-76{clip-path:url(#clip-path-38);}.cls-77{fill:url(#linear-gradient-38);}.cls-78{clip-path:url(#clip-path-39);}.cls-79{fill:url(#linear-gradient-39);}.cls-80{clip-path:url(#clip-path-40);}.cls-81{fill:url(#linear-gradient-40);}.cls-82{clip-path:url(#clip-path-41);}.cls-83{fill:url(#linear-gradient-41);}.cls-84{clip-path:url(#clip-path-42);}.cls-85{fill:url(#linear-gradient-42);}.cls-86{clip-path:url(#clip-path-43);}.cls-87{fill:url(#linear-gradient-43);}.cls-88{clip-path:url(#clip-path-44);}.cls-89{fill:url(#linear-gradient-44);}.cls-90{clip-path:url(#clip-path-45);}.cls-91{fill:url(#linear-gradient-45);}.cls-92{clip-path:url(#clip-path-46);}.cls-93{fill:url(#linear-gradient-46);}.cls-94{clip-path:url(#clip-path-47);}.cls-95{fill:url(#linear-gradient-47);}.cls-96{clip-path:url(#clip-path-48);}.cls-97{fill:url(#linear-gradient-48);}.cls-98{clip-path:url(#clip-path-49);}.cls-99{fill:url(#linear-gradient-49);}.cls-100{clip-path:url(#clip-path-50);}.cls-101{fill:url(#linear-gradient-50);}.cls-102{clip-path:url(#clip-path-51);}.cls-103{fill:url(#linear-gradient-51);}.cls-104{clip-path:url(#clip-path-52);}.cls-105{fill:url(#linear-gradient-52);}.cls-106{clip-path:url(#clip-path-53);}.cls-107{fill:url(#linear-gradient-53);}.cls-108{clip-path:url(#clip-path-54);}.cls-109{fill:url(#linear-gradient-54);}.cls-110{stroke:#e72d92;stroke-width:0.25px;}</style>
    <clipPath
       id="clip-path">
      <polygon
         class="cls-1"
         points="108.71 31.02 108.71 42.55 98.73 36.79 108.71 31.02"
         id="polygon1429" />
    </clipPath>
    <linearGradient
       id="linear-gradient"
       x1="-252.54"
       y1="427.94"
       x2="-251.54"
       y2="427.94"
       gradientTransform="matrix(0, 55.38, 55.38, 0, -23596.27, 13994.43)"
       gradientUnits="userSpaceOnUse">
      <stop
         offset="0"
         stop-color="#99d633"
         id="stop1432" />
      <stop
         offset="0.5"
         stop-color="#3c9"
         id="stop1434" />
      <stop
         offset="1"
         stop-color="#273470"
         id="stop1436" />
    </linearGradient>
    <clipPath
       id="clip-path-2">
      <polygon
         class="cls-1"
         points="108.21 71.86 108.21 83.39 98.23 77.62 108.21 71.86"
         id="polygon1439" />
    </clipPath>
    <linearGradient
       id="linear-gradient-2"
       x1="-252.54"
       y1="427.94"
       x2="-251.54"
       y2="427.94"
       gradientTransform="matrix(0, 55.38, 55.38, 0, -23596.95, 14016.69)"
       xlink:href="#linear-gradient" />
    <clipPath
       id="clip-path-3">
      <polygon
         class="cls-1"
         points="103.82 68.01 93.84 73.78 93.84 62.25 103.82 68.01"
         id="polygon1443" />
    </clipPath>
    <linearGradient
       id="linear-gradient-3"
       x1="-252.54"
       y1="428.02"
       x2="-251.54"
       y2="428.02"
       gradientTransform="matrix(0, 55.37, 55.37, 0, -23602.56, 14013.43)"
       xlink:href="#linear-gradient" />
    <clipPath
       id="clip-path-4">
      <polygon
         class="cls-1"
         points="110.06 52.04 110.06 63.57 100.08 57.8 110.06 52.04"
         id="polygon1447" />
    </clipPath>
    <linearGradient
       id="linear-gradient-4"
       x1="-252.54"
       y1="427.94"
       x2="-251.54"
       y2="427.94"
       gradientTransform="matrix(0, 55.38, 55.38, 0, -23595.1, 14004.54)"
       xlink:href="#linear-gradient" />
    <clipPath
       id="clip-path-5">
      <polygon
         class="cls-1"
         points="87.18 83.26 87.18 94.79 77.2 89.03 87.18 83.26"
         id="polygon1451" />
    </clipPath>
    <linearGradient
       id="linear-gradient-5"
       x1="-252.54"
       y1="427.94"
       x2="-251.54"
       y2="427.94"
       gradientTransform="matrix(0, 55.38, 55.38, 0, -23617.99, 14041.28)"
       xlink:href="#linear-gradient" />
    <clipPath
       id="clip-path-6">
      <polygon
         class="cls-1"
         points="88.84 75.7 75.53 68.02 88.84 60.33 88.84 75.7"
         id="polygon1455" />
    </clipPath>
    <linearGradient
       id="linear-gradient-6"
       x1="-252.54"
       y1="427.92"
       x2="-251.54"
       y2="427.92"
       gradientTransform="matrix(0, 55.37, 55.37, 0, -23610.49, 14026.2)"
       xlink:href="#linear-gradient" />
    <clipPath
       id="clip-path-7">
      <polygon
         class="cls-1"
         points="88.85 77.62 75.53 85.31 75.53 69.94 88.85 77.62"
         id="polygon1459" />
    </clipPath>
    <linearGradient
       id="linear-gradient-7"
       x1="-252.54"
       y1="428.04"
       x2="-251.54"
       y2="428.04"
       gradientTransform="matrix(0, 55.37, 55.37, 0, -23620.2, 14033.34)"
       xlink:href="#linear-gradient" />
    <clipPath
       id="clip-path-8">
      <polygon
         class="cls-1"
         points="88.84 58.41 75.53 66.09 75.53 50.72 88.84 58.41"
         id="polygon1463" />
    </clipPath>
    <linearGradient
       id="linear-gradient-8"
       x1="-252.54"
       y1="428.04"
       x2="-251.54"
       y2="428.04"
       gradientTransform="matrix(0, 55.38, 55.38, 0, -23623.46, 14025.07)"
       xlink:href="#linear-gradient" />
    <clipPath
       id="clip-path-9">
      <polygon
         class="cls-1"
         points="89.87 102.84 79.89 108.61 79.89 97.08 89.87 102.84"
         id="polygon1467" />
    </clipPath>
    <linearGradient
       id="linear-gradient-9"
       x1="-252.54"
       y1="428.02"
       x2="-251.54"
       y2="428.02"
       gradientTransform="matrix(0, 55.37, 55.37, 0, -23616.74, 14044.31)"
       xlink:href="#linear-gradient" />
    <clipPath
       id="clip-path-10">
      <polygon
         class="cls-1"
         points="73.86 68.02 57.22 58.41 73.86 48.8 73.86 68.02"
         id="polygon1471" />
    </clipPath>
    <linearGradient
       id="linear-gradient-10"
       x1="-252.54"
       y1="427.91"
       x2="-251.54"
       y2="427.91"
       gradientTransform="matrix(0, 55.38, 55.38, 0, -23633.94, 14040.26)"
       xlink:href="#linear-gradient" />
    <clipPath
       id="clip-path-11">
      <polygon
         class="cls-1"
         points="72.2 89.41 58.89 97.09 58.89 81.72 72.2 89.41"
         id="polygon1475" />
    </clipPath>
    <linearGradient
       id="linear-gradient-11"
       x1="-252.54"
       y1="428.04"
       x2="-251.54"
       y2="428.04"
       gradientTransform="matrix(0, 55.38, 55.38, 0, -23640.11, 14056.19)"
       xlink:href="#linear-gradient" />
    <clipPath
       id="clip-path-12">
      <polygon
         class="cls-1"
         points="70.53 108.25 60.55 114.01 60.55 102.48 70.53 108.25"
         id="polygon1479" />
    </clipPath>
    <linearGradient
       id="linear-gradient-12"
       x1="-252.54"
       y1="428.02"
       x2="-251.54"
       y2="428.02"
       gradientTransform="matrix(0, 55.37, 55.37, 0, -23636.06, 14064.28)"
       xlink:href="#linear-gradient" />
    <clipPath
       id="clip-path-13">
      <polygon
         class="cls-1"
         points="106.62 90.42 96.63 96.19 96.63 84.66 106.62 90.42"
         id="polygon1483" />
    </clipPath>
    <linearGradient
       id="linear-gradient-13"
       x1="-252.54"
       y1="428.01"
       x2="-251.54"
       y2="428.01"
       gradientTransform="matrix(0, 74.87, 74.87, 0, -31941.8, 18923.75)"
       xlink:href="#linear-gradient" />
    <clipPath
       id="clip-path-14">
      <polygon
         class="cls-1"
         points="103.82 48.8 93.84 54.56 93.84 43.03 103.82 48.8"
         id="polygon1487" />
    </clipPath>
    <linearGradient
       id="linear-gradient-14"
       x1="-252.54"
       y1="428.01"
       x2="-251.54"
       y2="428.01"
       gradientTransform="matrix(0, 74.88, 74.88, 0, -31950.36, 18911.75)"
       xlink:href="#linear-gradient" />
    <clipPath
       id="clip-path-15">
      <polygon
         class="cls-1"
         points="88.84 41.11 88.84 56.48 75.53 48.79 88.84 41.11"
         id="polygon1491" />
    </clipPath>
    <linearGradient
       id="linear-gradient-15"
       x1="-252.54"
       y1="427.94"
       x2="-251.54"
       y2="427.94"
       gradientTransform="matrix(0, 74.87, 74.87, 0, -31957.4, 18922.98)"
       xlink:href="#linear-gradient" />
    <clipPath
       id="clip-path-16">
      <polygon
         class="cls-1"
         points="70.54 92.05 70.54 103.58 60.55 97.81 70.54 92.05"
         id="polygon1495" />
    </clipPath>
    <linearGradient
       id="linear-gradient-16"
       x1="-252.54"
       y1="427.95"
       x2="-251.54"
       y2="427.95"
       gradientTransform="matrix(0, 74.88, 74.88, 0, -31978.93, 18959.76)"
       xlink:href="#linear-gradient" />
    <clipPath
       id="clip-path-17">
      <polygon
         class="cls-1"
         points="72.2 87.49 58.89 79.8 72.2 72.11 72.2 87.49"
         id="polygon1499" />
    </clipPath>
    <linearGradient
       id="linear-gradient-17"
       x1="-252.54"
       y1="427.94"
       x2="-251.54"
       y2="427.94"
       gradientTransform="matrix(0, 74.86, 74.86, 0, -31968.3, 18946.31)"
       xlink:href="#linear-gradient" />
    <clipPath
       id="clip-path-18">
      <polygon
         class="cls-1"
         points="57.22 58.41 73.86 68.02 57.22 77.62 57.22 58.41"
         id="polygon1503" />
    </clipPath>
    <linearGradient
       id="linear-gradient-18"
       x1="-252.54"
       y1="428.03"
       x2="-251.54"
       y2="428.03"
       gradientTransform="matrix(0, 74.89, 74.89, 0, -31990.13, 18950.01)"
       xlink:href="#linear-gradient" />
    <clipPath
       id="clip-path-19">
      <polygon
         class="cls-1"
         points="105.62 25.38 95.63 31.14 95.63 19.62 105.62 25.38"
         id="polygon1507" />
    </clipPath>
    <linearGradient
       id="linear-gradient-19"
       x1="-252.54"
       y1="427.98"
       x2="-251.54"
       y2="427.98"
       gradientTransform="matrix(58.08, 0, 0, -58.08, 14732.09, 24880.92)"
       gradientUnits="userSpaceOnUse">
      <stop
         offset="0"
         stop-color="#6cf"
         id="stop1510" />
      <stop
         offset="0.5"
         stop-color="#6258a6"
         id="stop1512" />
      <stop
         offset="1"
         stop-color="#273470"
         id="stop1514" />
    </linearGradient>
    <clipPath
       id="clip-path-20">
      <polygon
         class="cls-1"
         points="89.26 8.56 79.27 14.33 79.28 2.8 89.26 8.56"
         id="polygon1517" />
    </clipPath>
    <linearGradient
       id="linear-gradient-20"
       x1="-252.54"
       y1="427.98"
       x2="-251.54"
       y2="427.98"
       gradientTransform="matrix(58.08, 0, 0, -58.08, 14699.92, 24864.13)"
       xlink:href="#linear-gradient-19" />
    <clipPath
       id="clip-path-21">
      <polygon
         class="cls-1"
         points="88.85 39.19 75.53 46.87 75.53 31.5 88.85 39.19"
         id="polygon1521" />
    </clipPath>
    <linearGradient
       id="linear-gradient-21"
       x1="-252.54"
       y1="427.97"
       x2="-251.54"
       y2="427.97"
       gradientTransform="matrix(58.08, 0, 0, -58.08, 14728.57, 24894.67)"
       xlink:href="#linear-gradient-19" />
    <clipPath
       id="clip-path-22">
      <polygon
         class="cls-1"
         points="70.54 21.77 60.55 16 70.54 10.23 70.54 21.77"
         id="polygon1525" />
    </clipPath>
    <linearGradient
       id="linear-gradient-22"
       x1="-252.54"
       y1="427.98"
       x2="-251.54"
       y2="427.98"
       gradientTransform="matrix(58.08, 0, 0, -58.08, 14689.54, 24871.41)"
       xlink:href="#linear-gradient-19" />
    <clipPath
       id="clip-path-23">
      <polygon
         class="cls-1"
         points="72.2 29.32 72.2 44.7 58.89 37.01 72.2 29.32"
         id="polygon1529" />
    </clipPath>
    <linearGradient
       id="linear-gradient-23"
       x1="-252.54"
       y1="427.98"
       x2="-251.54"
       y2="427.98"
       gradientTransform="matrix(58.08, 0, 0, -58.08, 14710.73, 24893.01)"
       xlink:href="#linear-gradient-19" />
    <clipPath
       id="clip-path-24">
      <polygon
         class="cls-1"
         points="57.22 39.19 57.22 58.41 40.58 48.79 57.22 39.19"
         id="polygon1533" />
    </clipPath>
    <linearGradient
       id="linear-gradient-24"
       x1="-252.54"
       y1="427.98"
       x2="-251.54"
       y2="427.98"
       gradientTransform="matrix(58.08, 0, 0, -58.08, 14706.93, 24904.83)"
       xlink:href="#linear-gradient-19" />
    <clipPath
       id="clip-path-25">
      <polygon
         class="cls-1"
         points="55.56 35.09 42.24 27.4 55.56 19.71 55.56 35.09"
         id="polygon1537" />
    </clipPath>
    <linearGradient
       id="linear-gradient-25"
       x1="-252.54"
       y1="427.98"
       x2="-251.54"
       y2="427.98"
       gradientTransform="matrix(58.06, 0, 0, -58.06, 14681.04, 24875.64)"
       xlink:href="#linear-gradient-19" />
    <clipPath
       id="clip-path-26">
      <polygon
         class="cls-1"
         points="53.89 12.15 43.9 6.39 53.89 0.62 53.89 12.15"
         id="polygon1541" />
    </clipPath>
    <linearGradient
       id="linear-gradient-26"
       x1="-252.54"
       y1="427.98"
       x2="-251.54"
       y2="427.98"
       gradientTransform="matrix(58.08, 0, 0, -58.08, 14664.61, 24862.3)"
       xlink:href="#linear-gradient-19" />
    <clipPath
       id="clip-path-27">
      <polygon
         class="cls-1"
         points="38.91 46.87 25.6 39.18 38.91 31.5 38.91 46.87"
         id="polygon1545" />
    </clipPath>
    <linearGradient
       id="linear-gradient-27"
       x1="-252.54"
       y1="427.98"
       x2="-251.54"
       y2="427.98"
       gradientTransform="matrix(58.08, 0, 0, -58.08, 14681.45, 24894.67)"
       xlink:href="#linear-gradient-19" />
    <clipPath
       id="clip-path-28">
      <polygon
         class="cls-1"
         points="33.56 9.39 33.56 20.93 23.57 15.16 33.56 9.39"
         id="polygon1549" />
    </clipPath>
    <linearGradient
       id="linear-gradient-28"
       x1="-252.54"
       y1="427.98"
       x2="-251.54"
       y2="427.98"
       gradientTransform="matrix(58.08, 0, 0, -58.08, 14654.31, 24871.06)"
       xlink:href="#linear-gradient-19" />
    <clipPath
       id="clip-path-29">
      <polygon
         class="cls-1"
         points="87.18 33.55 77.19 27.78 87.18 22.02 87.18 33.55"
         id="polygon1553" />
    </clipPath>
    <linearGradient
       id="linear-gradient-29"
       x1="-252.54"
       y1="427.98"
       x2="-251.54"
       y2="427.98"
       gradientTransform="matrix(0, -57.34, -57.34, 0, 24623.04, -14423.85)"
       gradientUnits="userSpaceOnUse">
      <stop
         offset="0"
         stop-color="#6cf"
         id="stop1556" />
      <stop
         offset="0.5"
         stop-color="#6258a6"
         id="stop1558" />
      <stop
         offset="1"
         stop-color="#273470"
         id="stop1560" />
      <stop
         offset="1"
         stop-color="#273470"
         id="stop1562" />
    </linearGradient>
    <clipPath
       id="clip-path-30">
      <polygon
         class="cls-1"
         points="70.53 6.39 60.55 12.15 60.55 0.62 70.53 6.39"
         id="polygon1565" />
    </clipPath>
    <linearGradient
       id="linear-gradient-30"
       x1="-252.54"
       y1="427.98"
       x2="-251.54"
       y2="427.98"
       gradientTransform="matrix(0, -57.34, -57.34, 0, 24606.39, -14423.85)"
       xlink:href="#linear-gradient-29" />
    <clipPath
       id="clip-path-31">
      <polygon
         class="cls-1"
         points="72.2 27.4 58.89 35.09 58.89 19.72 72.2 27.4"
         id="polygon1569" />
    </clipPath>
    <clipPath
       id="clip-path-32">
      <polygon
         class="cls-1"
         points="73.86 48.8 57.22 58.41 57.22 39.19 73.86 48.8"
         id="polygon1572" />
    </clipPath>
    <linearGradient
       id="linear-gradient-32"
       x1="-252.54"
       y1="427.98"
       x2="-251.54"
       y2="427.98"
       gradientTransform="matrix(0, -57.34, -57.34, 0, 24606.39, -14423.85)"
       xlink:href="#linear-gradient-29" />
    <clipPath
       id="clip-path-33">
      <polygon
         class="cls-1"
         points="53.9 19.25 43.91 25.02 43.91 13.49 53.9 19.25"
         id="polygon1576" />
    </clipPath>
    <linearGradient
       id="linear-gradient-33"
       x1="-252.54"
       y1="427.98"
       x2="-251.54"
       y2="427.98"
       gradientTransform="matrix(0, -57.34, -57.34, 0, 24589.75, -14423.85)"
       xlink:href="#linear-gradient-29" />
    <clipPath
       id="clip-path-34">
      <polygon
         class="cls-1"
         points="55.56 37.01 42.24 44.7 42.24 29.32 55.56 37.01"
         id="polygon1580" />
    </clipPath>
    <linearGradient
       id="linear-gradient-34"
       x1="-252.54"
       y1="427.98"
       x2="-251.54"
       y2="427.98"
       gradientTransform="matrix(0, -57.34, -57.34, 0, 24589.75, -14423.85)"
       xlink:href="#linear-gradient-29" />
    <clipPath
       id="clip-path-35">
      <polygon
         class="cls-1"
         points="37.25 27.78 27.26 33.55 27.26 22.02 37.25 27.78"
         id="polygon1584" />
    </clipPath>
    <linearGradient
       id="linear-gradient-35"
       x1="-252.54"
       y1="427.98"
       x2="-251.54"
       y2="427.98"
       gradientTransform="matrix(0, -57.34, -57.34, 0, 24573.1, -14423.85)"
       xlink:href="#linear-gradient-29" />
    <clipPath
       id="clip-path-36">
      <polygon
         class="cls-1"
         points="15.81 36.44 5.83 30.67 15.81 24.91 15.81 36.44"
         id="polygon1588" />
    </clipPath>
    <linearGradient
       id="linear-gradient-36"
       x1="-252.54"
       y1="427.98"
       x2="-251.54"
       y2="427.98"
       gradientTransform="matrix(0, -57.32, -57.32, 0, 24544.04, -14419.36)"
       xlink:href="#linear-gradient-29" />
    <clipPath
       id="clip-path-37">
      <polygon
         class="cls-1"
         points="53.89 114.01 43.9 108.25 53.89 102.48 53.89 114.01"
         id="polygon1592" />
    </clipPath>
    <linearGradient
       id="linear-gradient-37"
       x1="-252.54"
       y1="427.95"
       x2="-251.54"
       y2="427.95"
       gradientTransform="matrix(-82.78, 0, 0, 82.78, -20807.17, -35318.75)"
       gradientUnits="userSpaceOnUse">
      <stop
         offset="0"
         stop-color="#fdbd4d"
         id="stop1595" />
      <stop
         offset="0.5"
         stop-color="#f63"
         id="stop1597" />
      <stop
         offset="1"
         stop-color="#273470"
         id="stop1599" />
    </linearGradient>
    <clipPath
       id="clip-path-38">
      <polygon
         class="cls-1"
         points="57.22 58.41 57.22 77.62 40.58 68.01 57.22 58.41"
         id="polygon1602" />
    </clipPath>
    <linearGradient
       id="linear-gradient-38"
       x1="-252.54"
       y1="427.93"
       x2="-251.54"
       y2="427.93"
       gradientTransform="matrix(-82.78, 0, 0, 82.78, -20826.35, -35357.38)"
       xlink:href="#linear-gradient-37" />
    <clipPath
       id="clip-path-39">
      <polygon
         class="cls-1"
         points="37.25 97.67 37.25 109.2 27.26 103.44 37.25 97.67"
         id="polygon1606" />
    </clipPath>
    <linearGradient
       id="linear-gradient-39"
       x1="-252.54"
       y1="427.95"
       x2="-251.54"
       y2="427.95"
       gradientTransform="matrix(-82.78, 0, 0, 82.78, -20809.94, -35320.91)"
       xlink:href="#linear-gradient-37" />
    <clipPath
       id="clip-path-40">
      <polygon
         class="cls-1"
         points="38.91 68.02 25.6 75.7 25.6 60.33 38.91 68.02"
         id="polygon1610" />
    </clipPath>
    <linearGradient
       id="linear-gradient-40"
       x1="-252.54"
       y1="428.02"
       x2="-251.54"
       y2="428.02"
       gradientTransform="matrix(-82.76, 0, 0, 82.76, -20822.19, -35354.01)"
       xlink:href="#linear-gradient-37" />
    <clipPath
       id="clip-path-41">
      <polygon
         class="cls-1"
         points="38.91 48.79 25.6 56.48 25.6 41.11 38.91 48.79"
         id="polygon1614" />
    </clipPath>
    <linearGradient
       id="linear-gradient-41"
       x1="-252.54"
       y1="428.02"
       x2="-251.54"
       y2="428.02"
       gradientTransform="matrix(-82.78, 0, 0, 82.78, -20837.56, -35383.71)"
       xlink:href="#linear-gradient-37" />
    <clipPath
       id="clip-path-42">
      <polygon
         class="cls-1"
         points="18.81 86.97 18.81 98.5 8.82 92.73 18.81 86.97"
         id="polygon1618" />
    </clipPath>
    <linearGradient
       id="linear-gradient-42"
       x1="-252.54"
       y1="427.95"
       x2="-251.54"
       y2="427.95"
       gradientTransform="matrix(-82.78, 0, 0, 82.78, -20818.88, -35334.21)"
       xlink:href="#linear-gradient-37" />
    <clipPath
       id="clip-path-43">
      <polygon
         class="cls-1"
         points="20.6 42.63 20.6 54.16 10.62 48.4 20.6 42.63"
         id="polygon1622" />
    </clipPath>
    <linearGradient
       id="linear-gradient-43"
       x1="-252.54"
       y1="427.95"
       x2="-251.54"
       y2="427.95"
       gradientTransform="matrix(-82.78, 0, 0, 82.78, -20839.71, -35378.59)"
       xlink:href="#linear-gradient-37" />
    <clipPath
       id="clip-path-44">
      <polygon
         class="cls-1"
         points="14.82 58.9 4.83 64.67 4.83 53.14 14.82 58.9"
         id="polygon1626" />
    </clipPath>
    <linearGradient
       id="linear-gradient-44"
       x1="-252.54"
       y1="428.01"
       x2="-251.54"
       y2="428.01"
       gradientTransform="matrix(-82.78, 0, 0, 82.78, -20835.42, -35372.84)"
       xlink:href="#linear-gradient-37" />
    <clipPath
       id="clip-path-45">
      <polygon
         class="cls-1"
         points="55.55 97.09 42.24 89.41 55.55 81.72 55.55 97.09"
         id="polygon1630" />
    </clipPath>
    <linearGradient
       id="linear-gradient-45"
       x1="-252.54"
       y1="427.92"
       x2="-251.54"
       y2="427.92"
       gradientTransform="matrix(-59.51, 0, 0, 59.51, -14957.78, -25376.99)"
       xlink:href="#linear-gradient-37" />
    <clipPath
       id="clip-path-46">
      <polygon
         class="cls-1"
         points="57.22 58.41 40.58 68.01 40.58 48.79 57.22 58.41"
         id="polygon1634" />
    </clipPath>
    <linearGradient
       id="linear-gradient-46"
       x1="-252.54"
       y1="428.05"
       x2="-251.54"
       y2="428.05"
       gradientTransform="matrix(-59.5, 0, 0, 59.5, -14971.33, -25412.06)"
       xlink:href="#linear-gradient-37" />
    <clipPath
       id="clip-path-47">
      <polygon
         class="cls-1"
         points="53.89 98.64 43.9 104.4 43.9 92.87 53.89 98.64"
         id="polygon1638" />
    </clipPath>
    <linearGradient
       id="linear-gradient-47"
       x1="-252.54"
       y1="428.02"
       x2="-251.54"
       y2="428.02"
       gradientTransform="matrix(-59.51, 0, 0, 59.51, -14952.77, -25373.03)"
       xlink:href="#linear-gradient-37" />
    <clipPath
       id="clip-path-48">
      <polygon
         class="cls-1"
         points="55.55 79.8 42.24 87.49 42.24 72.11 55.55 79.8"
         id="polygon1642" />
    </clipPath>
    <linearGradient
       id="linear-gradient-48"
       x1="-252.54"
       y1="428.03"
       x2="-251.54"
       y2="428.03"
       gradientTransform="matrix(-59.5, 0, 0, 59.5, -14960.23, -25389.28)"
       xlink:href="#linear-gradient-37" />
    <clipPath
       id="clip-path-49">
      <polygon
         class="cls-1"
         points="37.25 89.03 27.26 94.79 27.26 83.26 37.25 89.03"
         id="polygon1646" />
    </clipPath>
    <linearGradient
       id="linear-gradient-49"
       x1="-252.54"
       y1="428.02"
       x2="-251.54"
       y2="428.02"
       gradientTransform="matrix(-59.5, 0, 0, 59.5, -14957.54, -25378.64)"
       xlink:href="#linear-gradient-37" />
    <clipPath
       id="clip-path-50">
      <polygon
         class="cls-1"
         points="38.91 69.94 38.91 85.31 25.6 77.62 38.91 69.94"
         id="polygon1650" />
    </clipPath>
    <linearGradient
       id="linear-gradient-50"
       x1="-252.54"
       y1="427.92"
       x2="-251.54"
       y2="427.92"
       gradientTransform="matrix(-59.51, 0, 0, 59.51, -14965.63, -25388.22)"
       xlink:href="#linear-gradient-37" />
    <clipPath
       id="clip-path-51">
      <polygon
         class="cls-1"
         points="38.91 50.72 38.91 66.08 25.6 58.4 38.91 50.72"
         id="polygon1654" />
    </clipPath>
    <linearGradient
       id="linear-gradient-51"
       x1="-252.54"
       y1="427.92"
       x2="-251.54"
       y2="427.92"
       gradientTransform="matrix(-59.51, 0, 0, 59.51, -14975.33, -25407.42)"
       xlink:href="#linear-gradient-37" />
    <clipPath
       id="clip-path-52">
      <polygon
         class="cls-1"
         points="20.6 73.78 10.62 68.01 20.6 62.25 20.6 73.78"
         id="polygon1658" />
    </clipPath>
    <linearGradient
       id="linear-gradient-52"
       x1="-252.54"
       y1="427.94"
       x2="-251.54"
       y2="427.94"
       gradientTransform="matrix(-59.51, 0, 0, 59.51, -14972.74, -25398.64)"
       xlink:href="#linear-gradient-37" />
    <clipPath
       id="clip-path-53">
      <polygon
         class="cls-1"
         points="15.22 39.19 5.23 44.95 5.23 33.42 15.22 39.19"
         id="polygon1662" />
    </clipPath>
    <linearGradient
       id="linear-gradient-53"
       x1="-252.54"
       y1="428.02"
       x2="-251.54"
       y2="428.02"
       gradientTransform="matrix(-59.51, 0, 0, 59.51, -14987.94, -25432.47)"
       xlink:href="#linear-gradient-37" />
    <clipPath
       id="clip-path-54">
      <polygon
         class="cls-1"
         points="15.82 78.33 5.83 84.09 5.83 72.55 15.82 78.33"
         id="polygon1666" />
    </clipPath>
    <linearGradient
       id="linear-gradient-54"
       x1="-252.54"
       y1="428.02"
       x2="-251.54"
       y2="428.02"
       gradientTransform="matrix(-59.51, 0, 0, 59.51, -14968.16, -25393.34)"
       xlink:href="#linear-gradient-37" />
  </defs>
  <title
     id="title1672">SDAIA_Logo</title>
  <g
     id="Layer_2"
     data-name="Layer 2">
    <g
       id="Layer_1-2"
       data-name="Layer 1">
      <polygon
         class="cls-2"
         points="57.22 39.19 40.58 48.79 40.58 68.01 57.22 77.62 73.86 68.02 73.86 48.8 57.22 39.19"
         id="polygon1674" />
      <g
         class="cls-3"
         clip-path="url(#clip-path)"
         id="g1678">
        <rect
           class="cls-4"
           x="96.29"
           y="29.67"
           width="14.87"
           height="14.23"
           transform="translate(22.54 111.08) rotate(-61.99)"
           id="rect1676" />
      </g>
      <g
         class="cls-5"
         clip-path="url(#clip-path-2)"
         id="g1682">
        <rect
           class="cls-6"
           x="95.79"
           y="70.51"
           width="14.87"
           height="14.23"
           transform="translate(-13.79 132.3) rotate(-61.99)"
           id="rect1680" />
      </g>
      <g
         class="cls-7"
         clip-path="url(#clip-path-3)"
         id="g1686">
        <rect
           class="cls-8"
           x="91.4"
           y="60.9"
           width="14.87"
           height="14.23"
           transform="translate(-7.63 123.33) rotate(-61.99)"
           id="rect1684" />
      </g>
      <g
         class="cls-9"
         clip-path="url(#clip-path-4)"
         id="g1690">
        <rect
           class="cls-10"
           x="97.64"
           y="50.69"
           width="14.87"
           height="14.23"
           transform="translate(4.7 123.42) rotate(-61.99)"
           id="rect1688" />
      </g>
      <g
         class="cls-11"
         clip-path="url(#clip-path-5)"
         id="g1694">
        <rect
           class="cls-12"
           x="74.75"
           y="81.91"
           width="14.87"
           height="14.23"
           transform="translate(-35.01 119.78) rotate(-61.99)"
           id="rect1692" />
      </g>
      <g
         class="cls-13"
         clip-path="url(#clip-path-6)"
         id="g1698">
        <rect
           class="cls-14"
           x="72.27"
           y="58.53"
           width="19.83"
           height="18.98"
           transform="translate(-16.46 108.63) rotate(-61.99)"
           id="rect1696" />
      </g>
      <g
         class="cls-15"
         clip-path="url(#clip-path-7)"
         id="g1702">
        <rect
           class="cls-16"
           x="72.27"
           y="68.14"
           width="19.83"
           height="18.98"
           transform="translate(-24.94 113.73) rotate(-61.99)"
           id="rect1700" />
      </g>
      <g
         class="cls-17"
         clip-path="url(#clip-path-8)"
         id="g1706">
        <rect
           class="cls-18"
           x="72.27"
           y="48.92"
           width="19.82"
           height="18.97"
           transform="translate(-7.98 103.53) rotate(-61.99)"
           id="rect1704" />
      </g>
      <g
         class="cls-19"
         clip-path="url(#clip-path-9)"
         id="g1710">
        <rect
           class="cls-20"
           x="77.44"
           y="95.73"
           width="14.87"
           height="14.23"
           transform="translate(-45.78 129.48) rotate(-61.99)"
           id="rect1708" />
      </g>
      <g
         class="cls-21"
         clip-path="url(#clip-path-10)"
         id="g1714">
        <rect
           class="cls-22"
           x="53.15"
           y="46.55"
           width="24.78"
           height="23.72"
           transform="translate(-16.8 88.84) rotate(-61.99)"
           id="rect1712" />
      </g>
      <g
         class="cls-23"
         clip-path="url(#clip-path-11)"
         id="g1718">
        <rect
           class="cls-24"
           x="55.63"
           y="79.92"
           width="19.82"
           height="18.97"
           transform="translate(-44.17 105.29) rotate(-61.99)"
           id="rect1716" />
      </g>
      <g
         class="cls-25"
         clip-path="url(#clip-path-12)"
         id="g1722">
        <rect
           class="cls-26"
           x="58.11"
           y="101.13"
           width="14.87"
           height="14.23"
           transform="translate(-60.8 115.28) rotate(-61.99)"
           id="rect1720" />
      </g>
      <g
         class="cls-27"
         clip-path="url(#clip-path-13)"
         id="g1726">
        <rect
           class="cls-28"
           x="94.04"
           y="83.02"
           width="15.18"
           height="14.8"
           transform="translate(-30.82 121.43) rotate(-54.84)"
           id="rect1724" />
      </g>
      <g
         class="cls-29"
         clip-path="url(#clip-path-14)"
         id="g1730">
        <rect
           class="cls-30"
           x="91.24"
           y="41.39"
           width="15.18"
           height="14.8"
           transform="matrix(0.58, -0.82, 0.82, 0.58, 2.02, 101.49)"
           id="rect1728" />
      </g>
      <g
         class="cls-31"
         clip-path="url(#clip-path-15)"
         id="g1734">
        <rect
           class="cls-32"
           x="72.07"
           y="38.93"
           width="20.24"
           height="19.74"
           transform="translate(-5.04 87.88) rotate(-54.84)"
           id="rect1732" />
      </g>
      <g
         class="cls-33"
         clip-path="url(#clip-path-16)"
         id="g1738">
        <rect
           class="cls-34"
           x="57.96"
           y="90.41"
           width="15.18"
           height="14.8"
           transform="translate(-52.16 95.07) rotate(-54.84)"
           id="rect1736" />
      </g>
      <g
         class="cls-35"
         clip-path="url(#clip-path-17)"
         id="g1742">
        <rect
           class="cls-36"
           x="55.42"
           y="69.93"
           width="20.23"
           height="19.74"
           transform="translate(-37.44 87.42) rotate(-54.84)"
           id="rect1740" />
      </g>
      <g
         class="cls-37"
         clip-path="url(#clip-path-18)"
         id="g1746">
        <rect
           class="cls-38"
           x="52.89"
           y="55.68"
           width="25.29"
           height="24.67"
           transform="translate(-27.81 82.43) rotate(-54.84)"
           id="rect1744" />
      </g>
      <g
         class="cls-39"
         clip-path="url(#clip-path-19)"
         id="g1750">
        <rect
           class="cls-40"
           x="94.56"
           y="20.04"
           width="12.13"
           height="10.68"
           transform="translate(69.02 124.23) rotate(-86.42)"
           id="rect1748" />
      </g>
      <g
         class="cls-41"
         clip-path="url(#clip-path-20)"
         id="g1754">
        <rect
           class="cls-42"
           x="78.2"
           y="3.22"
           width="12.13"
           height="10.69"
           transform="translate(70.47 92.13) rotate(-86.42)"
           id="rect1752" />
      </g>
      <g
         class="cls-43"
         clip-path="url(#clip-path-21)"
         id="g1758">
        <rect
           class="cls-44"
           x="74.1"
           y="32.06"
           width="16.18"
           height="14.25"
           transform="translate(37.95 118.77) rotate(-86.42)"
           id="rect1756" />
      </g>
      <g
         class="cls-45"
         clip-path="url(#clip-path-22)"
         id="g1762">
        <rect
           class="cls-46"
           x="59.48"
           y="10.66"
           width="12.13"
           height="10.68"
           transform="translate(45.49 80.42) rotate(-86.42)"
           id="rect1760" />
      </g>
      <g
         class="cls-47"
         clip-path="url(#clip-path-23)"
         id="g1766">
        <rect
           class="cls-48"
           x="57.45"
           y="29.89"
           width="16.17"
           height="14.25"
           transform="translate(24.52 100.12) rotate(-86.42)"
           id="rect1764" />
      </g>
      <g
         class="cls-49"
         clip-path="url(#clip-path-24)"
         id="g1770">
        <rect
           class="cls-50"
           x="38.79"
           y="39.89"
           width="20.22"
           height="17.81"
           transform="translate(-2.85 94.56) rotate(-86.42)"
           id="rect1768" />
      </g>
      <g
         class="cls-51"
         clip-path="url(#clip-path-25)"
         id="g1774">
        <rect
           class="cls-52"
           x="40.81"
           y="20.28"
           width="16.18"
           height="14.25"
           transform="translate(18.5 74.5) rotate(-86.42)"
           id="rect1772" />
      </g>
      <g
         class="cls-53"
         clip-path="url(#clip-path-26)"
         id="g1778">
        <rect
           class="cls-54"
           x="42.83"
           y="1.04"
           width="12.13"
           height="10.69"
           transform="translate(39.47 54.79) rotate(-86.42)"
           id="rect1776" />
      </g>
      <g
         class="cls-55"
         clip-path="url(#clip-path-27)"
         id="g1782">
        <rect
           class="cls-56"
           x="24.17"
           y="32.06"
           width="16.18"
           height="14.25"
           transform="translate(-8.87 68.93) rotate(-86.42)"
           id="rect1780" />
      </g>
      <g
         class="cls-57"
         clip-path="url(#clip-path-28)"
         id="g1786">
        <rect
           class="cls-58"
           x="22.5"
           y="9.82"
           width="12.13"
           height="10.68"
           transform="translate(11.65 42.72) rotate(-86.42)"
           id="rect1784" />
      </g>
      <g
         class="cls-59"
         clip-path="url(#clip-path-29)"
         id="g1790">
        <rect
           class="cls-60"
           x="77.19"
           y="22.01"
           width="9.99"
           height="11.54"
           id="rect1788" />
      </g>
      <g
         class="cls-61"
         clip-path="url(#clip-path-30)"
         id="g1794">
        <rect
           class="cls-62"
           x="60.55"
           y="0.62"
           width="9.98"
           height="11.53"
           id="rect1792" />
      </g>
      <g
         class="cls-63"
         clip-path="url(#clip-path-31)"
         id="g1798">
        <rect
           class="cls-62"
           x="58.89"
           y="19.72"
           width="13.31"
           height="15.37"
           id="rect1796" />
      </g>
      <g
         class="cls-64"
         clip-path="url(#clip-path-32)"
         id="g1802">
        <rect
           class="cls-65"
           x="57.22"
           y="39.19"
           width="16.64"
           height="19.22"
           id="rect1800" />
      </g>
      <g
         class="cls-66"
         clip-path="url(#clip-path-33)"
         id="g1806">
        <rect
           class="cls-67"
           x="43.91"
           y="13.49"
           width="9.99"
           height="11.53"
           id="rect1804" />
      </g>
      <g
         class="cls-68"
         clip-path="url(#clip-path-34)"
         id="g1810">
        <rect
           class="cls-69"
           x="42.24"
           y="29.32"
           width="13.31"
           height="15.37"
           id="rect1808" />
      </g>
      <g
         class="cls-70"
         clip-path="url(#clip-path-35)"
         id="g1814">
        <rect
           class="cls-71"
           x="27.26"
           y="22.02"
           width="9.99"
           height="11.53"
           id="rect1812" />
      </g>
      <g
         class="cls-72"
         clip-path="url(#clip-path-36)"
         id="g1818">
        <rect
           class="cls-73"
           x="5.83"
           y="24.91"
           width="9.99"
           height="11.53"
           id="rect1816" />
      </g>
      <g
         class="cls-74"
         clip-path="url(#clip-path-37)"
         id="g1822">
        <rect
           class="cls-75"
           x="41.76"
           y="100.79"
           width="14.28"
           height="14.9"
           transform="translate(-45.67 36.38) rotate(-28.46)"
           id="rect1820" />
      </g>
      <g
         class="cls-76"
         clip-path="url(#clip-path-38)"
         id="g1826">
        <rect
           class="cls-77"
           x="37.01"
           y="55.6"
           width="23.79"
           height="24.83"
           transform="translate(-26.5 31.52) rotate(-28.46)"
           id="rect1824" />
      </g>
      <g
         class="cls-78"
         clip-path="url(#clip-path-39)"
         id="g1830">
        <rect
           class="cls-79"
           x="25.12"
           y="95.99"
           width="14.27"
           height="14.9"
           transform="translate(-45.4 27.87) rotate(-28.46)"
           id="rect1828" />
      </g>
      <g
         class="cls-80"
         clip-path="url(#clip-path-40)"
         id="g1834">
        <rect
           class="cls-81"
           x="22.74"
           y="58.08"
           width="19.03"
           height="19.86"
           transform="translate(-28.51 23.59) rotate(-28.46)"
           id="rect1832" />
      </g>
      <g
         class="cls-82"
         clip-path="url(#clip-path-41)"
         id="g1838">
        <rect
           class="cls-83"
           x="22.74"
           y="38.87"
           width="19.03"
           height="19.86"
           transform="translate(-19.36 21.27) rotate(-28.46)"
           id="rect1836" />
      </g>
      <g
         class="cls-84"
         clip-path="url(#clip-path-42)"
         id="g1842">
        <rect
           class="cls-85"
           x="6.68"
           y="85.29"
           width="14.27"
           height="14.89"
           transform="translate(-42.52 17.79) rotate(-28.46)"
           id="rect1840" />
      </g>
      <g
         class="cls-86"
         clip-path="url(#clip-path-43)"
         id="g1846">
        <rect
           class="cls-87"
           x="8.47"
           y="40.95"
           width="14.28"
           height="14.9"
           transform="translate(-21.18 13.29) rotate(-28.46)"
           id="rect1844" />
      </g>
      <g
         class="cls-88"
         clip-path="url(#clip-path-44)"
         id="g1850">
        <rect
           class="cls-89"
           x="2.69"
           y="51.46"
           width="14.27"
           height="14.89"
           transform="translate(-26.88 11.8) rotate(-28.46)"
           id="rect1848" />
      </g>
      <g
         class="cls-90"
         clip-path="url(#clip-path-45)"
         id="g1854">
        <rect
           class="cls-91"
           x="39.28"
           y="79.41"
           width="19.24"
           height="19.99"
           transform="translate(-38.33 36.72) rotate(-30.2)"
           id="rect1852" />
      </g>
      <g
         class="cls-92"
         clip-path="url(#clip-path-46)"
         id="g1858">
        <rect
           class="cls-93"
           x="36.88"
           y="45.91"
           width="24.05"
           height="24.98"
           transform="translate(-22.74 32.52) rotate(-30.2)"
           id="rect1856" />
      </g>
      <g
         class="cls-94"
         clip-path="url(#clip-path-47)"
         id="g1862">
        <rect
           class="cls-95"
           x="41.68"
           y="91.14"
           width="14.43"
           height="14.99"
           transform="translate(-42.98 37.98) rotate(-30.2)"
           id="rect1860" />
      </g>
      <g
         class="cls-96"
         clip-path="url(#clip-path-48)"
         id="g1866">
        <rect
           class="cls-97"
           x="39.28"
           y="69.8"
           width="19.24"
           height="19.99"
           transform="translate(-33.5 35.42) rotate(-30.2)"
           id="rect1864" />
      </g>
      <g
         class="cls-98"
         clip-path="url(#clip-path-49)"
         id="g1870">
        <rect
           class="cls-99"
           x="25.04"
           y="81.53"
           width="14.43"
           height="14.99"
           transform="translate(-40.4 28.3) rotate(-30.2)"
           id="rect1868" />
      </g>
      <g
         class="cls-100"
         clip-path="url(#clip-path-50)"
         id="g1874">
        <rect
           class="cls-101"
           x="22.63"
           y="67.63"
           width="19.24"
           height="19.98"
           transform="translate(-34.66 26.75) rotate(-30.2)"
           id="rect1872" />
      </g>
      <g
         class="cls-102"
         clip-path="url(#clip-path-51)"
         id="g1878">
        <rect
           class="cls-103"
           x="22.63"
           y="48.41"
           width="19.24"
           height="19.98"
           transform="translate(-25 24.15) rotate(-30.2)"
           id="rect1876" />
      </g>
      <g
         class="cls-104"
         clip-path="url(#clip-path-52)"
         id="g1882">
        <rect
           class="cls-105"
           x="8.39"
           y="60.52"
           width="14.43"
           height="14.99"
           transform="translate(-32.09 17.08) rotate(-30.2)"
           id="rect1880" />
      </g>
      <g
         class="cls-106"
         clip-path="url(#clip-path-53)"
         id="g1886">
        <rect
           class="cls-107"
           x="3.01"
           y="31.69"
           width="14.43"
           height="14.99"
           transform="translate(-18.32 10.46) rotate(-30.2)"
           id="rect1884" />
      </g>
      <g
         class="cls-108"
         clip-path="url(#clip-path-54)"
         id="g1890">
        <rect
           class="cls-109"
           x="3.6"
           y="70.82"
           width="14.44"
           height="14.99"
           transform="translate(-37.92 16.07) rotate(-30.2)"
           id="rect1888" />
      </g>
      <path
         d="M139.78,102.34a4.53,4.53,0,0,0-1.3-.65c-.49-.16-1-.3-1.49-.42l-1.5-.33a8.17,8.17,0,0,1-1.31-.38,2.72,2.72,0,0,1-.92-.6,1.28,1.28,0,0,1-.35-.95,2,2,0,0,1,.24-1,1.79,1.79,0,0,1,.64-.67,2.68,2.68,0,0,1,.92-.36,5.19,5.19,0,0,1,1-.1,3.58,3.58,0,0,1,2.16.61,2.68,2.68,0,0,1,1,2h1.6a4.26,4.26,0,0,0-.41-1.8,3.56,3.56,0,0,0-1-1.26,4.09,4.09,0,0,0-1.46-.73,7,7,0,0,0-3.51,0,4.78,4.78,0,0,0-1.48.68,3.42,3.42,0,0,0-1,1.16,3.37,3.37,0,0,0-.39,1.66,2.65,2.65,0,0,0,.35,1.44,2.88,2.88,0,0,0,.92,1,5.22,5.22,0,0,0,1.31.59c.49.15,1,.28,1.49.39l1.5.32a7.62,7.62,0,0,1,1.3.43,2.67,2.67,0,0,1,.92.67,1.6,1.6,0,0,1,.34,1.07,1.93,1.93,0,0,1-1,1.84,3.46,3.46,0,0,1-1,.36,5.67,5.67,0,0,1-1.15.11,5.37,5.37,0,0,1-1.4-.18,3.51,3.51,0,0,1-1.17-.55,2.9,2.9,0,0,1-.82-.95,2.87,2.87,0,0,1-.31-1.38h-1.6a4.57,4.57,0,0,0,.41,2,3.91,3.91,0,0,0,1.14,1.4,4.88,4.88,0,0,0,1.68.82,7.36,7.36,0,0,0,2,.27,7.56,7.56,0,0,0,1.75-.22,4.92,4.92,0,0,0,1.59-.67,3.63,3.63,0,0,0,1.17-1.17,3.64,3.64,0,0,0,.11-3.29,3.07,3.07,0,0,0-.92-1"
         id="path1892" />
      <path
         d="M150.11,107.05a3.64,3.64,0,0,1-.06-.78v-4.74a2.53,2.53,0,0,0-.3-1.3,2.11,2.11,0,0,0-.8-.77,3.42,3.42,0,0,0-1.12-.36A8.48,8.48,0,0,0,146.6,99a6.28,6.28,0,0,0-1.46.16,3.49,3.49,0,0,0-1.23.52,2.68,2.68,0,0,0-.85,1,3.2,3.2,0,0,0-.36,1.45h1.51a1.55,1.55,0,0,1,.7-1.38,3.11,3.11,0,0,1,1.6-.37,5.81,5.81,0,0,1,.72,0,2.05,2.05,0,0,1,.66.22,1.4,1.4,0,0,1,.48.46,1.55,1.55,0,0,1,.19.8.84.84,0,0,1-.25.65,1.74,1.74,0,0,1-.68.34,6.07,6.07,0,0,1-1,.18c-.37,0-.77.1-1.18.18s-.78.17-1.15.28a3.54,3.54,0,0,0-1,.47,2.27,2.27,0,0,0-.7.8,2.71,2.71,0,0,0-.27,1.29,2.67,2.67,0,0,0,.24,1.18,2.23,2.23,0,0,0,.65.8,2.62,2.62,0,0,0,1,.45,4.62,4.62,0,0,0,1.19.15,4.83,4.83,0,0,0,1.79-.34,3.78,3.78,0,0,0,1.45-1.09,1.48,1.48,0,0,0,.34,1.09,1.32,1.32,0,0,0,.94.34,2.1,2.1,0,0,0,1.08-.25v-1.18a1.34,1.34,0,0,1-.46.09c-.24,0-.38-.08-.42-.25m-1.57-1.83a1.81,1.81,0,0,1-.16.68,2.13,2.13,0,0,1-.5.68,2.83,2.83,0,0,1-.87.52,3.8,3.8,0,0,1-1.29.2,2.93,2.93,0,0,1-.67-.07,1.57,1.57,0,0,1-.56-.23,1.31,1.31,0,0,1-.39-.42A1.22,1.22,0,0,1,144,106a1.49,1.49,0,0,1,.15-.71,1.43,1.43,0,0,1,.4-.48,2,2,0,0,1,.58-.29q.34-.1.72-.18l.77-.11.76-.11a6.58,6.58,0,0,0,.67-.15,1.59,1.59,0,0,0,.54-.25Z"
         id="path1894" />
      <path
         d="M158.51,104.42a3.85,3.85,0,0,1-.17,1.15,2.79,2.79,0,0,1-.51.91,2.4,2.4,0,0,1-.85.61,3.1,3.1,0,0,1-1.2.21,1.86,1.86,0,0,1-1.37-.5,1.83,1.83,0,0,1-.5-1.35V99.22H152.4v6a5.72,5.72,0,0,0,.15,1.36,2.53,2.53,0,0,0,.53,1.06,2.47,2.47,0,0,0,1,.7,4.07,4.07,0,0,0,1.51.25,3.65,3.65,0,0,0,1.75-.41,3.16,3.16,0,0,0,1.24-1.27h0v1.46H160v-9.2h-1.51Z"
         id="path1896" />
      <path
         d="M169,100.45h0a2.7,2.7,0,0,0-.61-.69,3.55,3.55,0,0,0-.78-.44,4,4,0,0,0-.82-.24A4.13,4.13,0,0,0,166,99a4.09,4.09,0,0,0-1.84.38,3.66,3.66,0,0,0-1.32,1,4.47,4.47,0,0,0-.78,1.52,6.18,6.18,0,0,0-.26,1.85,6.56,6.56,0,0,0,.26,1.85,4.8,4.8,0,0,0,.8,1.54,3.85,3.85,0,0,0,1.31,1,4,4,0,0,0,1.86.4,4.47,4.47,0,0,0,1.77-.35,2.26,2.26,0,0,0,1.17-1.11h0v1.24h1.51V95.71H169Zm-.1,4.64a3.44,3.44,0,0,1-.49,1.12,2.75,2.75,0,0,1-.87.79,2.63,2.63,0,0,1-1.3.3A2.74,2.74,0,0,1,165,107a2.64,2.64,0,0,1-.89-.77,3.31,3.31,0,0,1-.51-1.09,4.85,4.85,0,0,1-.17-1.26,6.43,6.43,0,0,1,.14-1.32,3.68,3.68,0,0,1,.46-1.13,2.53,2.53,0,0,1,.85-.81,2.62,2.62,0,0,1,1.31-.3,2.72,2.72,0,0,1,1.33.3,2.5,2.5,0,0,1,.9.77,3.32,3.32,0,0,1,.51,1.11,5.17,5.17,0,0,1,.16,1.31,5.3,5.3,0,0,1-.15,1.26"
         id="path1898" />
      <rect
         x="172.94"
         y="99.22"
         width="1.51"
         height="9.2"
         id="rect1900" />
      <path
         d="M186.36,95.71H182v12.71h4.36a7.76,7.76,0,0,0,2.74-.44,4.9,4.9,0,0,0,1.91-1.29,5.35,5.35,0,0,0,1.1-2.09,10.13,10.13,0,0,0,.36-2.83,6,6,0,0,0-1.59-4.56,6.31,6.31,0,0,0-4.52-1.5m4.18,8.29a4.9,4.9,0,0,1-.62,1.38,3.18,3.18,0,0,1-.84.87,4.36,4.36,0,0,1-1,.49,4.14,4.14,0,0,1-.9.21c-.29,0-.53,0-.72,0h-2.81V97.14h2.85a5,5,0,0,1,2,.34,3.2,3.2,0,0,1,1.31,1,3.78,3.78,0,0,1,.73,1.52,8.42,8.42,0,0,1,.23,2,7.25,7.25,0,0,1-.24,2"
         id="path1902" />
      <path
         d="M201.55,107.05a3.64,3.64,0,0,1-.06-.78v-4.74a2.53,2.53,0,0,0-.3-1.3,2.11,2.11,0,0,0-.8-.77,3.37,3.37,0,0,0-1.11-.36A8.62,8.62,0,0,0,198,99a6.28,6.28,0,0,0-1.46.16,3.57,3.57,0,0,0-1.23.52,2.78,2.78,0,0,0-.85,1,3.2,3.2,0,0,0-.36,1.45h1.51a1.55,1.55,0,0,1,.7-1.38,3.11,3.11,0,0,1,1.6-.37,5.81,5.81,0,0,1,.72,0,2.05,2.05,0,0,1,.66.22,1.4,1.4,0,0,1,.48.46,1.55,1.55,0,0,1,.19.8.84.84,0,0,1-.25.65,1.67,1.67,0,0,1-.68.34,5.88,5.88,0,0,1-1,.18c-.37,0-.77.1-1.18.18s-.78.17-1.15.28a3.54,3.54,0,0,0-1,.47,2.27,2.27,0,0,0-.7.8,2.71,2.71,0,0,0-.27,1.29,2.67,2.67,0,0,0,.24,1.18,2.23,2.23,0,0,0,.65.8,2.62,2.62,0,0,0,1,.45,4.62,4.62,0,0,0,1.19.15,4.79,4.79,0,0,0,1.79-.34,3.78,3.78,0,0,0,1.45-1.09,1.44,1.44,0,0,0,.35,1.09,1.29,1.29,0,0,0,.93.34,2.17,2.17,0,0,0,1.09-.25v-1.18a1.44,1.44,0,0,1-.47.09c-.24,0-.37-.08-.42-.25M200,105.22a1.64,1.64,0,0,1-.16.68,2.13,2.13,0,0,1-.5.68,2.83,2.83,0,0,1-.87.52,3.74,3.74,0,0,1-1.28.2,3,3,0,0,1-.68-.07,1.65,1.65,0,0,1-.56-.23,1.31,1.31,0,0,1-.39-.42,1.22,1.22,0,0,1-.15-.63,1.49,1.49,0,0,1,.15-.71,1.43,1.43,0,0,1,.4-.48,1.91,1.91,0,0,1,.59-.29,6.68,6.68,0,0,1,.71-.18l.77-.11.76-.11a6,6,0,0,0,.67-.15,1.5,1.5,0,0,0,.54-.25Z"
         id="path1904" />
      <path
         d="M205.94,96.46h-1.51v2.76h-1.57v1.34h1.57v5.85a3.59,3.59,0,0,0,.12,1,1.22,1.22,0,0,0,.39.61,1.42,1.42,0,0,0,.67.29,5,5,0,0,0,1,.08h1.16v-1.33h-.7a4.51,4.51,0,0,1-.58,0,.85.85,0,0,1-.34-.11.44.44,0,0,1-.17-.25,1.63,1.63,0,0,1-.05-.43v-5.71h1.84V99.22h-1.84Z"
         id="path1906" />
      <path
         d="M216.72,107.05a3.64,3.64,0,0,1-.06-.78v-4.74a2.43,2.43,0,0,0-.31-1.3,2,2,0,0,0-.8-.77,3.29,3.29,0,0,0-1.11-.36A8.52,8.52,0,0,0,213.2,99a6.34,6.34,0,0,0-1.46.16,3.44,3.44,0,0,0-1.22.52,2.71,2.71,0,0,0-.86,1,3.33,3.33,0,0,0-.35,1.45h1.51a1.52,1.52,0,0,1,.69-1.38,3.13,3.13,0,0,1,1.6-.37,6.11,6.11,0,0,1,.73,0,1.92,1.92,0,0,1,.65.22,1.25,1.25,0,0,1,.48.46,1.46,1.46,0,0,1,.19.8.81.81,0,0,1-.25.65,1.63,1.63,0,0,1-.67.34,6.28,6.28,0,0,1-1,.18c-.38,0-.77.1-1.19.18s-.77.17-1.14.28a3.42,3.42,0,0,0-1,.47,2.17,2.17,0,0,0-.7.8,2.71,2.71,0,0,0-.27,1.29,2.67,2.67,0,0,0,.24,1.18,2.23,2.23,0,0,0,.65.8,2.55,2.55,0,0,0,1,.45,4.54,4.54,0,0,0,1.18.15,4.79,4.79,0,0,0,1.79-.34,3.71,3.71,0,0,0,1.45-1.09,1.49,1.49,0,0,0,.35,1.09,1.29,1.29,0,0,0,.93.34,2.14,2.14,0,0,0,1.09-.25v-1.18a1.38,1.38,0,0,1-.46.09c-.24,0-.38-.08-.42-.25m-1.58-1.83a1.64,1.64,0,0,1-.16.68,2,2,0,0,1-.49.68,2.77,2.77,0,0,1-.88.52,3.7,3.7,0,0,1-1.28.2,2.87,2.87,0,0,1-.67-.07,1.62,1.62,0,0,1-.57-.23,1.31,1.31,0,0,1-.39-.42,1.22,1.22,0,0,1-.15-.63,1.49,1.49,0,0,1,.15-.71,1.56,1.56,0,0,1,.4-.48,2,2,0,0,1,.59-.29c.23-.07.46-.13.71-.18l.78-.11.75-.11a6.22,6.22,0,0,0,.68-.15,1.53,1.53,0,0,0,.53-.25Z"
         id="path1908" />
      <path
         d="M232.16,104.8a5.35,5.35,0,0,0,.24-.67,4.79,4.79,0,0,0,.16-.74c0-.26.08-.59.12-1h-1.44a7.06,7.06,0,0,1-.41,2l-2.3-2.79a8.67,8.67,0,0,0,.89-.6,4.84,4.84,0,0,0,.76-.74,3.17,3.17,0,0,0,.54-.9,2.81,2.81,0,0,0,.19-1.06,2.44,2.44,0,0,0-.25-1.13,2.6,2.6,0,0,0-.69-.82,2.87,2.87,0,0,0-1-.49,4.36,4.36,0,0,0-1.14-.16,3.29,3.29,0,0,0-1.23.22,2.45,2.45,0,0,0-.9.58,2.27,2.27,0,0,0-.55.83,2.6,2.6,0,0,0-.19,1,3,3,0,0,0,.12.87,2.66,2.66,0,0,0,.32.73,6.65,6.65,0,0,0,.45.68c.17.22.34.46.52.71a10,10,0,0,0-1.15.69,4.72,4.72,0,0,0-.95.82,3.82,3.82,0,0,0-.64,1,3.38,3.38,0,0,0-.24,1.32,4.5,4.5,0,0,0,.14,1,2.76,2.76,0,0,0,.56,1.14,3.53,3.53,0,0,0,1.21,1,5.16,5.16,0,0,0,3.1.28,4.71,4.71,0,0,0,1-.34,3.8,3.8,0,0,0,.87-.56,3.22,3.22,0,0,0,.69-.78l1.35,1.58h2l-2.48-2.86c.13-.29.25-.54.34-.76m-5.23-7.42a1.71,1.71,0,0,1,1-.33,1.43,1.43,0,0,1,1.08.4,1.31,1.31,0,0,1,.39,1,1.61,1.61,0,0,1-.16.74,2.45,2.45,0,0,1-.41.6,3.72,3.72,0,0,1-.56.48l-.57.39-.43-.53c-.14-.18-.27-.36-.39-.55a3.37,3.37,0,0,1-.3-.56,1.46,1.46,0,0,1-.12-.57,1.17,1.17,0,0,1,.47-1m2,9.51a2.87,2.87,0,0,1-1.55.41,2.51,2.51,0,0,1-.9-.16,2.69,2.69,0,0,1-.78-.43,2.26,2.26,0,0,1-.54-.68,1.87,1.87,0,0,1-.21-.88,2.5,2.5,0,0,1,.18-1,2.87,2.87,0,0,1,.48-.76,4.17,4.17,0,0,1,.71-.6c.26-.18.55-.35.84-.52l2.92,3.51a3.55,3.55,0,0,1-1.15,1.1"
         id="path1910" />
      <path
         d="M243.82,95.71l-5,12.71h1.75L242,104.6h5.38l1.38,3.82h1.87l-5-12.71Zm-1.26,7.46,2.15-5.93h0l2.12,5.93Z"
         id="path1912" />
      <rect
         x="251.97"
         y="95.71"
         width="1.69"
         height="12.71"
         id="rect1914" />
      <path
         d="M264.91,95.71l-5,12.71h1.74l1.42-3.82h5.38l1.39,3.82h1.87l-5-12.71Zm-1.26,7.46,2.15-5.93h0l2.12,5.93Z"
         id="path1916" />
      <path
         d="M278.85,104.42a3.85,3.85,0,0,1-.17,1.15,2.47,2.47,0,0,1-.51.91,2.28,2.28,0,0,1-.84.61,3.14,3.14,0,0,1-1.2.21,1.88,1.88,0,0,1-1.38-.5,1.82,1.82,0,0,1-.49-1.35V99.22h-1.52v6a5.23,5.23,0,0,0,.16,1.36,2.51,2.51,0,0,0,.52,1.06,2.54,2.54,0,0,0,1,.7,4.11,4.11,0,0,0,1.51.25,3.69,3.69,0,0,0,1.76-.41A3.21,3.21,0,0,0,278.9,107h0v1.46h1.42v-9.2h-1.51Z"
         id="path1918" />
      <path
         d="M284.74,96.46h-1.51v2.76h-1.57v1.34h1.57v5.85a3.59,3.59,0,0,0,.12,1,1.21,1.21,0,0,0,.38.61,1.51,1.51,0,0,0,.68.29,4.92,4.92,0,0,0,1,.08h1.15v-1.33h-.69a4.51,4.51,0,0,1-.58,0A1,1,0,0,1,285,107a.49.49,0,0,1-.17-.25,2.33,2.33,0,0,1,0-.43v-5.71h1.83V99.22h-1.83Z"
         id="path1920" />
      <path
         d="M295.19,100a2.42,2.42,0,0,0-1-.69A3.91,3.91,0,0,0,292.7,99a4.17,4.17,0,0,0-.85.09,4,4,0,0,0-.83.27,3.16,3.16,0,0,0-.72.49,2,2,0,0,0-.5.71h0V95.71h-1.51v12.71h1.51v-5.19a3.8,3.8,0,0,1,.17-1.15,2.51,2.51,0,0,1,.51-.92,2.15,2.15,0,0,1,.84-.6,3,3,0,0,1,1.2-.22,1.84,1.84,0,0,1,1.37.5,1.79,1.79,0,0,1,.5,1.35v6.23h1.52v-6a5.23,5.23,0,0,0-.16-1.36,2.57,2.57,0,0,0-.52-1.06"
         id="path1922" />
      <path
         d="M305.44,100.4a4.12,4.12,0,0,0-1.4-1,5.22,5.22,0,0,0-3.86,0,4.12,4.12,0,0,0-1.4,1,4.41,4.41,0,0,0-.85,1.53,6.15,6.15,0,0,0-.28,1.9,6,6,0,0,0,.28,1.89,4.27,4.27,0,0,0,.85,1.52,4.12,4.12,0,0,0,1.4,1,5.09,5.09,0,0,0,3.86,0,4.12,4.12,0,0,0,1.4-1,4.29,4.29,0,0,0,.86-1.52,6,6,0,0,0,.28-1.89,6.15,6.15,0,0,0-.28-1.9,4.43,4.43,0,0,0-.86-1.53m-.68,4.92a3.16,3.16,0,0,1-.62,1.08,2.59,2.59,0,0,1-.91.67,2.84,2.84,0,0,1-1.12.23,2.79,2.79,0,0,1-1.11-.23,2.72,2.72,0,0,1-.92-.67,3.14,3.14,0,0,1-.61-1.08,5.16,5.16,0,0,1,0-3,3.29,3.29,0,0,1,.61-1.09,2.75,2.75,0,0,1,.92-.68,2.79,2.79,0,0,1,1.11-.23,2.84,2.84,0,0,1,1.12.23,2.62,2.62,0,0,1,.91.68,3.3,3.3,0,0,1,.62,1.09,5.16,5.16,0,0,1,0,3"
         id="path1924" />
      <path
         d="M309.77,101.16h0V99.22h-1.42v9.2h1.51v-4.09a6.27,6.27,0,0,1,.18-1.57,3,3,0,0,1,.57-1.17,2.36,2.36,0,0,1,1-.73,4.2,4.2,0,0,1,1.55-.25V99a3.39,3.39,0,0,0-2,.49,4.09,4.09,0,0,0-1.35,1.66"
         id="path1926" />
      <rect
         x="314.38"
         y="99.22"
         width="1.51"
         height="9.2"
         id="rect1928" />
      <path
         d="M320.34,96.46h-1.51v2.76h-1.57v1.34h1.57v5.85a3.59,3.59,0,0,0,.12,1,1.21,1.21,0,0,0,.38.61,1.51,1.51,0,0,0,.68.29,4.92,4.92,0,0,0,1,.08h1.15v-1.33h-.69a4.51,4.51,0,0,1-.58,0,1,1,0,0,1-.35-.11.49.49,0,0,1-.17-.25,1.69,1.69,0,0,1,0-.43v-5.71h1.83V99.22h-1.83Z"
         id="path1930" />
      <path
         d="M329.86,99.22l-2.58,7.53h0l-2.69-7.53h-1.71l3.65,9.15-.62,1.57a1.89,1.89,0,0,1-.5.62,1.23,1.23,0,0,1-.75.21,1.37,1.37,0,0,1-.45-.07l-.44-.14V112a2.31,2.31,0,0,0,.52.12,3.08,3.08,0,0,0,.53,0,2.72,2.72,0,0,0,.89-.14,1.76,1.76,0,0,0,.69-.42,3.06,3.06,0,0,0,.56-.76,8.89,8.89,0,0,0,.53-1.14l4-10.43Z"
         id="path1932" />
      <polygon
         points="174.45 95.71 172.94 95.71 172.94 97.56 174.45 96.69 174.45 95.71"
         id="polygon1934" />
      <polygon
         points="315.89 95.71 314.38 95.71 314.38 97.56 315.89 96.69 315.89 95.71"
         id="polygon1936" />
      <path
         d="M130.94,64.83a2.83,2.83,0,0,0,1.11.45,8.23,8.23,0,0,0,1.71.14h10.79V58.57h-1.46V64h-8.6a13.35,13.35,0,0,1-1.4-.06,2.4,2.4,0,0,1-.88-.22,1,1,0,0,1-.45-.5,2.37,2.37,0,0,1-.13-.88V60.06h-1.46v2.76a3.55,3.55,0,0,0,.18,1.21,1.67,1.67,0,0,0,.59.8"
         id="path1938" />
      <path
         d="M147.75,64.91a1.83,1.83,0,0,0,.8.4,4.74,4.74,0,0,0,1,.11h7.3V58.57h-1.46V64h-5.66a1.27,1.27,0,0,1-1-.32,1.85,1.85,0,0,1-.23-1.06V52.71H147V63a3.1,3.1,0,0,0,.19,1.18,1.91,1.91,0,0,0,.52.76"
         id="path1940" />
      <path
         d="M160.06,64.91a2,2,0,0,0,.8.4,4.84,4.84,0,0,0,1,.11h4.55a5.73,5.73,0,0,0,1.68-.21,1.59,1.59,0,0,0,1-.94,1.51,1.51,0,0,0,.57.82,1.75,1.75,0,0,0,1.11.33h1.47a5.78,5.78,0,0,0,1.68-.21,1.61,1.61,0,0,0,1-.94,1.51,1.51,0,0,0,.57.82,1.78,1.78,0,0,0,1.12.33h1.26a6.47,6.47,0,0,0,1.81-.21,1.58,1.58,0,0,0,1-.94,1.6,1.6,0,0,0,.56.82,1.76,1.76,0,0,0,1.12.33h4.23V52.71h-1.46V64h-2.77a1.32,1.32,0,0,1-1.17-.53,2.5,2.5,0,0,1-.36-1.43V52.71h-1.46v9.94a2.17,2.17,0,0,1-.1.7,1,1,0,0,1-.27.39.8.8,0,0,1-.42.17,4.48,4.48,0,0,1-.57,0h-1.42a1.76,1.76,0,0,1-.77-.15,1.15,1.15,0,0,1-.48-.39,1.4,1.4,0,0,1-.24-.61,5.13,5.13,0,0,1-.06-.81V58.57h-1.46v4.08a1.92,1.92,0,0,1-.1.7.74.74,0,0,1-.3.39,1.14,1.14,0,0,1-.51.17,7.1,7.1,0,0,1-.73,0h-1.2a1.67,1.67,0,0,1-.75-.15,1.12,1.12,0,0,1-.49-.39,1.69,1.69,0,0,1-.24-.61,5.13,5.13,0,0,1-.06-.81V58.57h-1.46v4.08a1.92,1.92,0,0,1-.1.7.74.74,0,0,1-.3.39,1.06,1.06,0,0,1-.51.17,7.1,7.1,0,0,1-.73,0h-4.11c-.53,0-.88-.11-1-.32a1.85,1.85,0,0,1-.23-1.06V52.71h-1.46V63a3.1,3.1,0,0,0,.19,1.18,1.89,1.89,0,0,0,.51.76"
         id="path1942" />
      <path
         d="M194.15,63.37a3.13,3.13,0,0,0,1.07.45,4.81,4.81,0,0,0,1,.13,5.36,5.36,0,0,0,1-.09,5.1,5.1,0,0,0,.88-.24,2.07,2.07,0,0,0,.3.88,1.73,1.73,0,0,0,.56.55,2.06,2.06,0,0,0,.75.29,4.18,4.18,0,0,0,.88.08H208V58.57h-1.46V64l-5.84,0c-.54,0-.88-.11-1-.31a1.78,1.78,0,0,1-.24-1.06V57.48h-2.83a4.89,4.89,0,0,0-1.29.18,3.36,3.36,0,0,0-1.18.59,3,3,0,0,0-.87,1,3.35,3.35,0,0,0-.34,1.6,3,3,0,0,0,.36,1.55,2.64,2.64,0,0,0,.86.92m.81-4a2.43,2.43,0,0,1,1.46-.44H198v3.15a3.38,3.38,0,0,1-.81.23,4.3,4.3,0,0,1-.84.09,2.1,2.1,0,0,1-1.51-.46,1.61,1.61,0,0,1-.47-1.2A1.56,1.56,0,0,1,195,59.4"
         id="path1944" />
      <path
         d="M215.75,64.87a1.84,1.84,0,0,0,.59-1.4,2.14,2.14,0,0,0-.17-.81,8.7,8.7,0,0,0-.51-1c-.23-.39-.51-.87-.86-1.42S214,59,213.56,58.16l-1.37.86,1.43,2.11.8,1.21a3.7,3.7,0,0,1,.35.63,1,1,0,0,1,.07.37.61.61,0,0,1-.16.42,1.07,1.07,0,0,1-.76.19h-4.13v1.47H214a2.39,2.39,0,0,0,1.71-.55"
         id="path1946" />
      <path
         d="M253.32,64h-2.8a1.75,1.75,0,0,1-.76-.15,1.15,1.15,0,0,1-.48-.39,1.53,1.53,0,0,1-.24-.61A5.13,5.13,0,0,1,249,62V58.57h-1.46v4.08a1.92,1.92,0,0,1-.1.7.81.81,0,0,1-.27.39.87.87,0,0,1-.43.17,4.58,4.58,0,0,1-.55,0,2.07,2.07,0,0,1-.86-.15,1.16,1.16,0,0,1-.52-.39,1.4,1.4,0,0,1-.25-.61,5.13,5.13,0,0,1-.06-.81V59.46H243v3.19a1.92,1.92,0,0,1-.1.7.84.84,0,0,1-.29.39,1,1,0,0,1-.48.17,6.39,6.39,0,0,1-.68,0,2.64,2.64,0,0,1-1-.15,1.23,1.23,0,0,1-.56-.39,1.29,1.29,0,0,1-.25-.61,6.77,6.77,0,0,1,0-.81V59.46h-1.46v3.19a1.9,1.9,0,0,1-.11.7.76.76,0,0,1-.34.39,1.62,1.62,0,0,1-.65.17c-.28,0-.61,0-1,0H233a4.23,4.23,0,0,1-.89-.08,5.56,5.56,0,0,0,1.51-1.51,3.31,3.31,0,0,0,.56-1.83,1.92,1.92,0,0,0-.19-.81,2,2,0,0,0-.57-.71,2.91,2.91,0,0,0-1-.5,4.3,4.3,0,0,0-1.36-.19,4.45,4.45,0,0,0-1.76.34,4.15,4.15,0,0,0-1.38.91,1.18,1.18,0,0,0-.2.27c-.07.12-.13.24-.2.38s-.12.27-.17.41-.1.28-.14.41l2.23,2.53a7.56,7.56,0,0,1-1.27.29,9.8,9.8,0,0,1-1.33.09h-2.07v-.84a10.12,10.12,0,0,0-.17-1.91,4.37,4.37,0,0,0-.58-1.46,2.81,2.81,0,0,0-1-.93,3.41,3.41,0,0,0-1.57-.33,3.27,3.27,0,0,0-1.49.33,3.59,3.59,0,0,0-1.1.86,3.91,3.91,0,0,0-.69,1.23,4.1,4.1,0,0,0-.25,1.43,3.7,3.7,0,0,0,.26,1.46,2.53,2.53,0,0,0,.71.95,2.81,2.81,0,0,0,1.07.52,5.21,5.21,0,0,0,1.35.16h2a2.21,2.21,0,0,1-.31,1.16,2.06,2.06,0,0,1-.8.69,4,4,0,0,1-1.21.32,14.16,14.16,0,0,1-1.53.08h-.55v1.47h.75a10.6,10.6,0,0,0,2-.18,4.32,4.32,0,0,0,1.57-.6,2.94,2.94,0,0,0,1-1.14,4.32,4.32,0,0,0,.46-1.8h2.17a9.44,9.44,0,0,0,1.85-.18,9.77,9.77,0,0,0,1.74-.53,2.73,2.73,0,0,0,1,.58,3.64,3.64,0,0,0,1,.13H236c.52,0,1,0,1.35,0a3.83,3.83,0,0,0,.94-.18,1.69,1.69,0,0,0,.62-.36,1.54,1.54,0,0,0,.4-.59,4.28,4.28,0,0,0,.27.43,1.6,1.6,0,0,0,.43.38,2.41,2.41,0,0,0,.68.27,5.09,5.09,0,0,0,1,.09,5.4,5.4,0,0,0,1.6-.21,1.63,1.63,0,0,0,1-.94,1.57,1.57,0,0,0,.24.4A1.65,1.65,0,0,0,245,65a2.81,2.81,0,0,0,.67.28,4,4,0,0,0,1,.1,3.66,3.66,0,0,0,.52,0,3,3,0,0,0,.62-.17,2.29,2.29,0,0,0,.6-.35,1.5,1.5,0,0,0,.45-.59,1.51,1.51,0,0,0,.57.82,1.78,1.78,0,0,0,1.12.33h4.25V52.71h-1.46Zm-30,0h-1.91a2.44,2.44,0,0,1-1.54-.43,1.63,1.63,0,0,1-.52-1.34,3,3,0,0,1,.12-.82,2.64,2.64,0,0,1,.37-.73,1.87,1.87,0,0,1,.61-.54,1.92,1.92,0,0,1,.89-.2,1.6,1.6,0,0,1,1.53.78,4.2,4.2,0,0,1,.45,2.1Zm7.49-.91-2.17-2.3a2.62,2.62,0,0,1,1-.75,3.22,3.22,0,0,1,1.34-.28,2.12,2.12,0,0,1,1.31.33.93.93,0,0,1,.42.74,1.83,1.83,0,0,1-.53,1.24,4.68,4.68,0,0,1-1.38,1"
         id="path1948" />
      <rect
         x="257.28"
         y="52.71"
         width="1.46"
         height="12.71"
         id="rect1950" />
      <path
         d="M281.27,55.56H280a1.16,1.16,0,0,1-1-1.89,1,1,0,0,1,.83-.33,2.52,2.52,0,0,1,.93.16v-1a2.08,2.08,0,0,0-.39-.09,3.06,3.06,0,0,0-.65-.06,2.13,2.13,0,0,0-.71.13,1.66,1.66,0,0,0-.6.36,1.82,1.82,0,0,0-.43.61,2.06,2.06,0,0,0-.16.86,1.79,1.79,0,0,0,.41,1.21h-.91v.94h3.88Z"
         id="path1952" />
      <path
         d="M301,52.71h-1.46V64h-5.34v-.08a3.92,3.92,0,0,0,.88-1.06,3.18,3.18,0,0,0,.38-1.62,3.56,3.56,0,0,0-.14-.93,2.77,2.77,0,0,0-.47-.92,2.59,2.59,0,0,0-.87-.72,2.73,2.73,0,0,0-1.31-.28,2.83,2.83,0,0,0-2.42,1.19,5.6,5.6,0,0,0-.88,3.38v1h-1.9a1.76,1.76,0,0,1-.77-.15,1.15,1.15,0,0,1-.48-.39,1.4,1.4,0,0,1-.24-.61A5.13,5.13,0,0,1,286,62V58.57h-1.46v4.08a1.92,1.92,0,0,1-.1.7.74.74,0,0,1-.3.39,1.14,1.14,0,0,1-.51.17,7.1,7.1,0,0,1-.73,0h-1.19a1.69,1.69,0,0,1-.76-.15,1.12,1.12,0,0,1-.49-.39,1.69,1.69,0,0,1-.24-.61,5.13,5.13,0,0,1-.06-.81V58.57h-1.46v4.08a2.2,2.2,0,0,1-.09.7.81.81,0,0,1-.31.39,1.06,1.06,0,0,1-.51.17,7.06,7.06,0,0,1-.72,0l-4.26,0a1.28,1.28,0,0,1-1-.31,1.79,1.79,0,0,1-.23-1.06V57.48h-2.83a4.78,4.78,0,0,0-1.29.18,3.32,3.32,0,0,0-1.19.59,3.22,3.22,0,0,0-.87,1,3.48,3.48,0,0,0-.34,1.6,3,3,0,0,0,.36,1.55,2.73,2.73,0,0,0,.86.92,3.22,3.22,0,0,0,1.07.45,4.81,4.81,0,0,0,1,.13,5.26,5.26,0,0,0,.95-.09,4.86,4.86,0,0,0,.88-.24,2.07,2.07,0,0,0,.3.88,1.83,1.83,0,0,0,.56.55,2.06,2.06,0,0,0,.75.29,4.24,4.24,0,0,0,.88.08h4.7a5.73,5.73,0,0,0,1.68-.21,1.59,1.59,0,0,0,1-.94,1.56,1.56,0,0,0,.57.82,1.78,1.78,0,0,0,1.12.33h1.46a5.78,5.78,0,0,0,1.68-.21,1.61,1.61,0,0,0,1-.94,1.51,1.51,0,0,0,.57.82,1.78,1.78,0,0,0,1.12.33h1.9v.2a9,9,0,0,0,.16,1.73,3.44,3.44,0,0,0,.55,1.32,2.56,2.56,0,0,0,1,.84,3.73,3.73,0,0,0,1.55.29,3.28,3.28,0,0,0,1.22-.21,2.39,2.39,0,0,0,1.4-1.41,2.8,2.8,0,0,0,.18-1,3.31,3.31,0,0,0-.12-.81,2,2,0,0,0-.56-.89v-.07H301Zm-31,9.4a3.67,3.67,0,0,1-.81.23,4.39,4.39,0,0,1-.85.09,2.06,2.06,0,0,1-1.5-.46,1.59,1.59,0,0,1-.47-1.2,1.56,1.56,0,0,1,.6-1.37,2.45,2.45,0,0,1,1.46-.44H270Zm20.82.66a4.36,4.36,0,0,1,.47-2.22,1.52,1.52,0,0,1,1.35-.77,1.41,1.41,0,0,1,1,.4,1.68,1.68,0,0,1,.42,1.26,3,3,0,0,1-.12.79,2.53,2.53,0,0,1-.41.82,2.29,2.29,0,0,1-.76.64,2.38,2.38,0,0,1-1.15.26h-.8Zm2.9,5.27a1.51,1.51,0,0,1-1.12.37,1.83,1.83,0,0,1-.91-.2,1.41,1.41,0,0,1-.55-.56,2.36,2.36,0,0,1-.25-.84,6.85,6.85,0,0,1-.07-1v-.34h1.32a2.44,2.44,0,0,1,1,.19,1.63,1.63,0,0,1,.59.44,1.28,1.28,0,0,1,.26.52,2.94,2.94,0,0,1,.05.44,1.42,1.42,0,0,1-.36,1"
         id="path1954" />
      <rect
         x="303.52"
         y="52.71"
         width="1.46"
         height="12.71"
         id="rect1956" />
      <path
         d="M141.58,86.92h9.06V85.44H148a2.36,2.36,0,0,1-1.73-.57,2,2,0,0,1-.57-1.49,1.86,1.86,0,0,1,.66-1.51,2.67,2.67,0,0,1,1.78-.55,4.41,4.41,0,0,1,1,.08,6.5,6.5,0,0,1,.73.18V80a2.85,2.85,0,0,0-.66-.16,6.82,6.82,0,0,0-1.08-.07,4.62,4.62,0,0,0-1.38.21,3.76,3.76,0,0,0-1.25.66,3.59,3.59,0,0,0-.91,1.12,3.49,3.49,0,0,0-.34,1.6,3.27,3.27,0,0,0,.21,1.21,2.62,2.62,0,0,0,.53.87h-4a12.24,12.24,0,0,1-4.29-.83v1.44l1.22.35a13.39,13.39,0,0,1,1.31.44,4.4,4.4,0,0,1,1,.55.94.94,0,0,1,.41.73.85.85,0,0,1-.35.66,3,3,0,0,1-1,.47,8.43,8.43,0,0,1-1.43.28,13.6,13.6,0,0,1-1.72.1,6.48,6.48,0,0,1-3.54-.74,2.6,2.6,0,0,1-1.08-2.31V84.11h-1.46v2.74a5.28,5.28,0,0,0,.26,1.68,3,3,0,0,0,1,1.35,4.92,4.92,0,0,0,1.85.9,11.09,11.09,0,0,0,3,.33,13.17,13.17,0,0,0,2.73-.24,6.1,6.1,0,0,0,1.81-.65,2.75,2.75,0,0,0,1-.91,2.12,2.12,0,0,0,.31-1,2.2,2.2,0,0,0-.14-.74,2,2,0,0,0-.34-.6"
         id="path1958" />
      <path
         d="M189.85,79.84a5.28,5.28,0,0,0-2.28.5,7.25,7.25,0,0,0-1.88,1.32,8.94,8.94,0,0,0-1.42,1.81,10.35,10.35,0,0,0-.93,2,1.32,1.32,0,0,1-.68-.15.89.89,0,0,1-.38-.39,1.51,1.51,0,0,1-.17-.61,6.86,6.86,0,0,1,0-.81V81h-1.46v3.19a1.92,1.92,0,0,1-.1.7.83.83,0,0,1-.35.39,1.58,1.58,0,0,1-.65.17c-.27,0-.61,0-1,0h-2V83.92a4.36,4.36,0,0,0-1-3,3.45,3.45,0,0,0-2.7-1.08,5,5,0,0,0-2.84.81,7.27,7.27,0,0,0-2.13,2.29V74.21h-1.46V85.45h-2a1.69,1.69,0,0,1-.76-.15,1,1,0,0,1-.48-.39,1.4,1.4,0,0,1-.24-.61,4.14,4.14,0,0,1-.07-.81V80.07h-1.46v4.08a2.2,2.2,0,0,1-.09.7.81.81,0,0,1-.31.39,1.06,1.06,0,0,1-.5.17c-.21,0-.45,0-.73,0h-4.12a1.26,1.26,0,0,1-1-.32,1.85,1.85,0,0,1-.23-1.06V74.21H153V84.47a3.1,3.1,0,0,0,.19,1.18,1.82,1.82,0,0,0,.51.76,1.93,1.93,0,0,0,.81.4,4.74,4.74,0,0,0,1,.11h4.55a5.85,5.85,0,0,0,1.69-.21,1.6,1.6,0,0,0,1-.94,1.62,1.62,0,0,0,.57.82,1.8,1.8,0,0,0,1.12.33h14c.52,0,1,0,1.36,0a5.07,5.07,0,0,0,1-.17,1.85,1.85,0,0,0,.67-.35,1.56,1.56,0,0,0,.43-.59,4.49,4.49,0,0,0,.24.42,1.3,1.3,0,0,0,.36.38,2,2,0,0,0,.57.26,3.82,3.82,0,0,0,.91.09h9.61v-3a4.32,4.32,0,0,0-1-3,3.62,3.62,0,0,0-2.79-1.06m-14.77,5.61H167.9a9.49,9.49,0,0,1,.71-1.43,6.94,6.94,0,0,1,1-1.32,5.31,5.31,0,0,1,1.32-1,3.27,3.27,0,0,1,1.58-.39,2.68,2.68,0,0,1,1.2.23,2,2,0,0,1,.79.62,2.2,2.2,0,0,1,.43.94,5.24,5.24,0,0,1,.13,1.14Zm17.08,0H184.9a9,9,0,0,1,.71-1.47,6.53,6.53,0,0,1,1.06-1.33,5.59,5.59,0,0,1,1.36-1,3.44,3.44,0,0,1,1.59-.37,3,3,0,0,1,1.18.21,2,2,0,0,1,.8.6,2.61,2.61,0,0,1,.43.94,4.91,4.91,0,0,1,.13,1.18Z"
         id="path1960" />
      <polygon
         points="199.39 76.81 199.39 85.45 195.39 85.45 195.39 86.92 205.5 86.92 205.5 74.21 204.04 74.21 204.04 85.45 200.85 85.45 200.85 76.81 199.39 76.81"
         id="polygon1962" />
      <rect
         x="207.99"
         y="74.21"
         width="1.46"
         height="12.71"
         id="rect1964" />
      <path
         d="M218.49,85.17a1.7,1.7,0,0,1-.41-1.15,1.82,1.82,0,0,1,.08-.52,1.23,1.23,0,0,1,.27-.47,1.59,1.59,0,0,1,.46-.33,1.71,1.71,0,0,1,.69-.12,3.26,3.26,0,0,1,1.26.23V81.42a3,3,0,0,0-.52-.1c-.25,0-.54,0-.89,0a3,3,0,0,0-1,.17A2.44,2.44,0,0,0,217,82.78a2.94,2.94,0,0,0-.22,1.19,2.5,2.5,0,0,0,.58,1.67h-1.29v1.28h5.35V85.64h-1.67a1.65,1.65,0,0,1-1.3-.47"
         id="path1966" />
      <path
         d="M230.05,78.59a2.7,2.7,0,0,0-.22.33,3.91,3.91,0,0,0-.2.41,1.47,1.47,0,0,0-.1.44,20,20,0,0,1,1.92,1.07,16.64,16.64,0,0,1,1.64,1.21,7.22,7.22,0,0,1,1.16,1.22,1.87,1.87,0,0,1,.44,1,.91.91,0,0,1-.44.89,2.23,2.23,0,0,1-1.09.24H226a1.26,1.26,0,0,1-1-.32,1.85,1.85,0,0,1-.23-1.06V74.21h-1.46V84.47a3.1,3.1,0,0,0,.19,1.18,1.82,1.82,0,0,0,.51.76,2,2,0,0,0,.8.4,4.9,4.9,0,0,0,1.05.11h7.31a3.81,3.81,0,0,0,1.51-.25,2.25,2.25,0,0,0,.91-.62,2,2,0,0,0,.44-.82,2.91,2.91,0,0,0-.13-2,4.45,4.45,0,0,0-.79-1.23,10.37,10.37,0,0,0-1.42-1.34,17.66,17.66,0,0,0-2.12-1.42L236.75,77V75.53l-6.51,2.87a1.1,1.1,0,0,0-.19.19"
         id="path1968" />
      <path
         d="M242.33,85.26a2.88,2.88,0,0,1-1.15.19H238v1.47h2.7c.29,0,.57,0,.86,0a3.65,3.65,0,0,0,.81-.17,2,2,0,0,0,1.2-1.19,3.16,3.16,0,0,0,1,1.09,2.32,2.32,0,0,0,1.22.3H250V74.21h-1.46V85.45h-2.78a.92.92,0,0,1-.47-.14,2,2,0,0,1-.46-.4,5.63,5.63,0,0,1-.51-.69l-.62-1-2.14-3.54-1.37.85,1.89,2.8a6.93,6.93,0,0,1,.45.73,1.52,1.52,0,0,1,.17.68.59.59,0,0,1-.4.54"
         id="path1970" />
      <rect
         x="252.52"
         y="74.21"
         width="1.46"
         height="12.71"
         id="rect1972" />
      <path
         d="M262.44,88.46a5.81,5.81,0,0,0,.35-2.18V84.61a8.92,8.92,0,0,0-.17-1.86,4.24,4.24,0,0,0-.56-1.46,2.74,2.74,0,0,0-1-1,3.34,3.34,0,0,0-1.59-.35,3.46,3.46,0,0,0-1.51.32,3.25,3.25,0,0,0-1.11.86,3.71,3.71,0,0,0-.67,1.22,4.15,4.15,0,0,0-.24,1.39,3.88,3.88,0,0,0,.26,1.5,2.61,2.61,0,0,0,.7,1,2.57,2.57,0,0,0,1,.52,4.85,4.85,0,0,0,1.29.16,4.25,4.25,0,0,0,1.28-.16,3.54,3.54,0,0,0,.84-.35v.33A2.53,2.53,0,0,1,261,88a1.74,1.74,0,0,1-.79.73,3.31,3.31,0,0,1-1.21.32,14.75,14.75,0,0,1-1.56.08h-.55v1.47h.75a12.76,12.76,0,0,0,2.15-.17,4,4,0,0,0,1.62-.67,3.16,3.16,0,0,0,1-1.34m-1.14-3.53a2.75,2.75,0,0,1-.79.39,3.59,3.59,0,0,1-1.19.18,2.27,2.27,0,0,1-1.44-.44,1.73,1.73,0,0,1-.55-1.45,2.91,2.91,0,0,1,.11-.76,2.27,2.27,0,0,1,.36-.71,1.91,1.91,0,0,1,.62-.54,2,2,0,0,1,.94-.21,1.63,1.63,0,0,1,1.51.83,2.65,2.65,0,0,1,.33.91,6,6,0,0,1,.1,1.14Z"
         id="path1974" />
      <polygon
         points="287.08 67.19 285.57 67.19 285.57 69.04 287.08 68.16 287.08 67.19"
         id="polygon1976" />
      <polygon
         points="284.77 67.19 283.25 67.19 283.25 69.04 284.77 68.16 284.77 67.19"
         id="polygon1978" />
      <polygon
         points="270.81 53.82 269.3 53.82 269.3 55.67 270.81 54.79 270.81 53.82"
         id="polygon1980" />
      <polygon
         points="268.5 53.82 266.99 53.82 266.99 55.67 268.5 54.79 268.5 53.82"
         id="polygon1982" />
      <polygon
         points="198.76 53.82 197.25 53.82 197.25 55.67 198.76 54.79 198.76 53.82"
         id="polygon1984" />
      <polygon
         points="196.44 53.82 194.93 53.82 194.93 55.67 196.44 54.79 196.44 53.82"
         id="polygon1986" />
      <polygon
         points="208.5 67.17 206.98 67.17 206.98 69.02 208.5 68.14 208.5 67.17"
         id="polygon1988" />
      <polygon
         points="206.18 67.17 204.67 67.17 204.67 69.02 206.18 68.14 206.18 67.17"
         id="polygon1990" />
      <polygon
         points="170.42 67.17 168.91 67.17 168.91 69.02 170.42 68.14 170.42 67.17"
         id="polygon1992" />
      <polygon
         points="168.11 67.17 166.59 67.17 166.59 69.02 168.11 68.14 168.11 67.17"
         id="polygon1994" />
      <polygon
         points="174.84 67.17 173.32 67.17 173.32 69.02 174.84 68.14 174.84 67.17"
         id="polygon1996" />
      <polygon
         points="241.73 76.14 240.21 76.14 240.21 77.99 241.73 77.11 241.73 76.14"
         id="polygon1998" />
      <polygon
         points="162.96 76.14 161.45 76.14 161.45 77.99 162.96 77.11 162.96 76.14"
         id="polygon2000" />
      <polygon
         points="139.38 55.69 137.87 55.69 137.87 57.54 139.38 56.66 139.38 55.69"
         id="polygon2002" />
      <polygon
         points="137.06 55.69 135.55 55.69 135.55 57.54 137.06 56.66 137.06 55.69"
         id="polygon2004" />
      <polygon
         points="137.9 92.24 136.39 92.24 136.39 94.09 137.9 93.22 137.9 92.24"
         id="polygon2006" />
      <polygon
         points="135.59 92.24 134.07 92.24 134.07 94.09 135.59 93.22 135.59 92.24"
         id="polygon2008" />
      <polygon
         points="156.86 54.64 155.35 54.64 155.35 56.49 156.86 55.61 156.86 54.64"
         id="polygon2010" />
      <path
         d="M188.6,2H172v40.1H188.6c13.78,0,23-8,23-20s-9.18-20-23-20m0,31h-4.81v-22h4.81c6.44,0,10.81,4.32,10.81,11s-4.37,11-10.81,11"
         id="path2012" />
      <polygon
         points="242.76 2.02 225.06 2.02 212.51 42.12 225.23 42.12 227.51 34.28 238.67 27.84 229.21 27.84 233.91 12.27 238.67 27.84 242.59 42.12 255.31 42.12 242.76 2.02"
         id="polygon2014" />
      <polygon
         points="306.58 2.02 288.88 2.02 276.34 42.12 289.05 42.12 291.33 34.28 302.49 27.84 293.02 27.84 297.74 12.27 302.49 27.84 306.41 42.12 319.13 42.12 306.58 2.02"
         id="polygon2016" />
      <polygon
         points="259.74 9.04 259.74 42.12 271.89 42.12 271.89 2.02 259.74 9.04"
         id="polygon2018" />
      <path
         d="M149.68,16.81c-4.43-.5-7.79-.95-7.79-3.81,0-2.13,2.35-3.7,5.77-3.7,4,0,6.94,2.24,6.89,5.32l9-5.23c-2.43-5.3-8.53-8.77-16.32-8.77-10,0-17.14,5.49-17.14,13.73,0,9.46,7.73,11.53,16,12.49,4.26.55,7.78,1,7.78,3.92,0,2.4-2.35,4.09-5.88,4.09-4.36,0-7.55-2.52-7.61-5.93H129.91A13.28,13.28,0,0,0,131,34.35c2.46,5.53,8.69,9.17,16.62,9.17,10.58,0,18-5.82,18-14.33,0-9.47-8-11.54-16-12.38"
         id="path2020" />
    </g>
  </g>
  <metadata
     id="metadata2190">
    <rdf:RDF>
      <cc:Work
         rdf:about="">
        <dc:title>SDAIA_Logo</dc:title>
      </cc:Work>
    </rdf:RDF>
  </metadata>
</svg>
